<?xml version="1.0" encoding="utf-8"?>
<svg viewBox="39.428 -11.1 107.905 107.419" xmlns="http://www.w3.org/2000/svg">
  <path id="path22" style="fill-opacity: 1; fill-rule: evenodd; stroke: none; fill: rgb(255, 255, 255);" d="m 273.708,30.793 c 0,0 -6.629,-0.457 -12.26,0.057 0.104,-6.855 0.942,-10.365 1.079,-11.119 l 12.313,0 c -0.592,3.602 -1.053,9.416 -1.132,11.062 m -20.894,14.222 c 0.827,-0.068 8.088,-0.698 8.572,-0.698 0,0.03 11.491,-11.685 11.491,-11.685 l 14.771,0 0,12.383 -34.834,0 z m 9.623,0.727 12.403,0 0,12.014 -12.403,0 0,-12.014 z m -0.082,-3.459 0,0 -1.615,1.646 c -2.141,-0.024 -9.061,0.701 -11.289,1.086 l 0,-12.383 c 11.112,-1.097 16.936,-1.377 23.445,-1.169 l 0.108,0 -10.649,10.82 z m 11.293,-10.292 1.515,0 0,-9.63 c -0.19,1.007 -0.753,6.868 -0.686,8.741 -0.181,0.2 -0.829,0.889 -0.829,0.889" transform="matrix(2.824958, 0, 0, -2.824958, -665.260639, 152.058294)"/>
</svg>