<?xml version="1.0" standalone="no"?>
<!DOCTYPE svg PUBLIC "-//W3C//DTD SVG 20010904//EN"
 "http://www.w3.org/TR/2001/REC-SVG-20010904/DTD/svg10.dtd">
<svg version="1.0" xmlns="http://www.w3.org/2000/svg"
 width="864.000000pt" height="864.000000pt" viewBox="0 0 864.000000 864.000000"
 preserveAspectRatio="xMidYMid meet">
<metadata>
Created by potrace 1.11, written by Peter Selinger 2001-2013
</metadata>
<g transform="translate(0.000000,864.000000) scale(0.100000,-0.100000)"
fill="#000000" stroke="none">
<path d="M2933 7260 l0 -1360 78 0 c44 0 567 0 1164 0 597 0 1194 0 1328 0
l243 0 0 1360 0 1360 -1407 0 -1406 0 0 -1360z"/>
<path d="M763 5738 c-2 -5 13 -9 34 -9 78 -3 138 -7 138 -9 0 -1 29 -4 65 -6
36 -1 65 -3 65 -4 0 -1 18 -3 40 -5 22 -1 74 -6 115 -9 111 -11 167 -15 250
-21 41 -2 75 -5 75 -6 0 -1 25 -3 55 -5 30 -1 55 -3 55 -4 0 -1 23 -3 50 -5
28 -2 82 -7 120 -10 39 -4 95 -8 125 -11 30 -2 84 -7 120 -10 36 -3 90 -7 120
-9 30 -3 84 -7 120 -10 87 -8 125 -11 255 -20 130 -9 146 -11 155 -25 6 -9
331 -341 1005 -1025 121 -123 364 -370 540 -550 176 -179 426 -434 555 -565
129 -132 289 -295 356 -362 l120 -124 1672 0 1672 0 -2 1405 -3 1404 -3933 1
c-2164 1 -3936 -2 -3939 -6z"/>
<path d="M0 4338 c0 -1117 3 -1405 13 -1406 6 0 37 -3 67 -6 30 -3 80 -8 111
-11 30 -2 78 -7 105 -10 27 -3 74 -7 104 -10 117 -11 177 -16 215 -20 22 -2
67 -6 100 -9 33 -4 80 -8 105 -11 24 -3 79 -6 122 -7 43 -2 78 -5 78 -8 0 -3
15 -6 33 -7 17 0 59 -4 92 -7 33 -3 92 -8 130 -11 39 -3 95 -8 125 -10 30 -3
84 -8 120 -11 36 -3 85 -7 110 -10 25 -2 81 -6 125 -9 93 -6 195 -13 406 -30
133 -10 229 -17 294 -20 39 -2 70 -4 70 -5 0 0 40 -3 88 -5 49 -2 121 -6 160
-9 148 -10 355 -19 434 -20 46 -1 83 -3 83 -6 0 -3 44 -6 98 -7 53 -1 189 -4
302 -8 267 -8 1099 -11 1218 -5 50 3 92 1 92 -3 0 -5 5 -5 12 -1 7 4 79 9 161
10 82 1 151 4 153 7 3 2 -91 102 -208 220 -205 208 -796 809 -1191 1210 -104
106 -391 397 -637 647 -246 250 -512 520 -590 600 l-142 145 -66 1 c-73 2
-306 13 -387 19 -62 4 -193 14 -260 20 -27 2 -86 7 -130 10 -44 4 -96 9 -115
11 -19 2 -66 6 -105 9 -38 3 -79 7 -90 9 -30 6 -197 20 -222 20 -13 0 -23 2
-23 5 0 3 -26 7 -58 7 -31 1 -77 5 -102 8 -25 4 -67 9 -95 12 -62 6 -140 14
-180 20 -16 2 -48 6 -70 8 -77 8 -159 18 -177 21 -36 7 -143 19 -175 19 -18 1
-33 4 -33 7 0 3 -12 6 -27 6 -16 1 -44 4 -63 8 -19 3 -48 8 -65 9 -16 2 -49 7
-72 11 l-43 8 0 -1405z"/>
<path d="M5475 2792 c-2 -3 10 -19 28 -37 18 -18 59 -62 92 -99 l60 -66 1 -93
c1 -86 12 -353 20 -477 13 -212 25 -368 39 -515 3 -27 7 -81 11 -120 3 -38 7
-90 10 -115 2 -25 6 -66 8 -92 4 -43 11 -103 21 -188 5 -38 14 -122 21 -185
10 -96 15 -132 22 -165 l9 -35 4 43 c3 23 2 42 -1 42 -4 0 -4 387 0 515 1 18
1 139 1 175 -1 24 0 143 0 160 0 8 -1 294 -3 635 l-3 620 -167 1 c-92 1 -170
-1 -173 -4z"/>
<path d="M2715 2528 c-11 -33 15 -712 39 -1028 3 -30 7 -91 10 -135 3 -44 8
-99 11 -122 3 -23 8 -68 10 -100 3 -32 8 -76 11 -98 2 -22 7 -67 9 -100 3 -33
7 -71 10 -85 3 -14 7 -45 10 -70 3 -25 8 -61 11 -80 3 -19 7 -55 10 -80 3 -25
7 -53 10 -63 3 -9 7 -34 10 -55 5 -46 14 -99 29 -181 1 -9 6 -36 10 -61 4 -25
9 -53 11 -63 7 -31 13 -61 25 -124 l13 -63 1396 0 1396 0 -2 28 c-1 15 -3 27
-4 27 -1 0 -5 21 -15 90 -1 11 -3 20 -5 20 -1 0 -3 14 -4 30 -4 39 -15 123
-21 155 -3 14 -7 45 -9 70 -3 25 -7 61 -10 80 -3 19 -8 55 -10 80 -3 25 -7 63
-10 85 -3 22 -8 63 -11 90 -3 28 -8 68 -11 90 -3 22 -7 58 -9 80 -2 22 -4 40
-5 40 0 0 -3 27 -5 60 -3 33 -7 80 -11 105 -3 25 -7 65 -9 90 -3 25 -7 70 -10
100 -3 30 -8 82 -11 115 -2 33 -6 80 -9 105 -3 25 -7 72 -10 105 -3 33 -8 92
-11 130 -4 39 -7 91 -8 117 0 27 -3 48 -6 48 -3 0 -6 24 -7 53 -4 94 -14 259
-28 437 -2 19 -4 44 -4 56 -1 22 13 22 -211 8 -532 -31 -1923 -38 -1970 -9 -5
3 -10 1 -10 -5 0 -6 -5 -8 -11 -4 -6 4 -48 8 -93 10 -149 6 -361 21 -434 29
-29 4 -44 2 -47 -7z"/>
</g>
</svg>
